<svg xmlns="http://www.w3.org/2000/svg" viewBox="0 0 96 120" width="96" height="120" role="img" aria-label="Forge mark">
  <title>Forge mark</title>
  <defs>
    <linearGradient id="body" x1="48" y1="34" x2="48" y2="105" gradientUnits="userSpaceOnUse">
      <stop offset="0" stop-color="#FF8A4C"/>
      <stop offset="0.55" stop-color="#E85620"/>
      <stop offset="1" stop-color="#B83C12"/>
    </linearGradient>
    <radialGradient id="core" cx="48" cy="71" r="26" gradientUnits="userSpaceOnUse">
      <stop offset="0" stop-color="#FFF3D0"/>
      <stop offset="0.6" stop-color="#FFC95E"/>
      <stop offset="1" stop-color="#FFB23E"/>
    </radialGradient>
  </defs>
  <path d="M30 40C38 34 58 34 66 40C78 48 85 58 85 72C85 92 68 105 48 105C28 105 11 92 11 72C11 58 18 48 30 40Z" fill="url(#body)"/>
  <path d="M48 52C61 52 71 62 71 74C71 89 61 97 48 97C35 97 25 89 25 74C25 62 35 52 48 52Z" fill="url(#core)"/>
</svg>
