<svg xmlns="http://www.w3.org/2000/svg" viewBox="0 0 96 120" width="96" height="120" role="img" aria-label="Himma mark">
  <title>Himma mark</title>
  <defs>
    <linearGradient id="body" x1="48" y1="14" x2="48" y2="110" gradientUnits="userSpaceOnUse">
      <stop offset="0" stop-color="#FF9A5C"/>
      <stop offset="0.5" stop-color="#FF6A2C"/>
      <stop offset="1" stop-color="#E2521A"/>
    </linearGradient>
    <linearGradient id="core" x1="48" y1="56" x2="48" y2="101" gradientUnits="userSpaceOnUse">
      <stop offset="0" stop-color="#FFE7A8"/>
      <stop offset="1" stop-color="#FFB23E"/>
    </linearGradient>
  </defs>
  <path d="M48 14C58 33 81 45 81 76C81 98.5 66.5 111 48 111C29.5 111 15 98.5 15 76C15 47 36.5 38.5 48 14Z" fill="url(#body)"/>
  <path d="M48 56C56 67 64 73.5 64 84C64 95.5 57.5 102 48 102C38.5 102 32 95.5 32 84C32 73.5 40 67 48 56Z" fill="url(#core)"/>
</svg>
