<svg xmlns="http://www.w3.org/2000/svg" viewBox="0 0 1024 1024" width="1024" height="1024" role="img" aria-label="Himma app icon">
  <title>Himma app icon</title>
  <rect width="1024" height="1024" rx="224" fill="#FFF4EC"/>
  <g transform="translate(272,212) scale(5)">
    <path d="M48 16 C 58 34 80 46 80 76 C 80 98 66 110 48 110 C 30 110 16 98 16 76 C 16 48 36 40 48 16 Z" fill="#FB6F4C"/>
    <path d="M48 58 C 55 68 63 74 63 84 C 63 95 57 101 48 101 C 39 101 33 95 33 84 C 33 74 41 68 48 58 Z" fill="#FFC24B"/>
    <circle cx="40" cy="72" r="4.5" fill="#2C2622"/>
    <circle cx="56" cy="72" r="4.5" fill="#2C2622"/>
    <circle cx="41.6" cy="70.4" r="1.4" fill="#FFFFFF"/>
    <circle cx="57.6" cy="70.4" r="1.4" fill="#FFFFFF"/>
    <path d="M41 82 Q48 89 55 82" fill="none" stroke="#2C2622" stroke-width="3" stroke-linecap="round"/>
  </g>
</svg>
